<svg xmlns="http://www.w3.org/2000/svg" width="1183" height="887" viewBox="0 0 1183 887">
<g>
<path d="M 740.50 531.57 C732.43,533.81 711.72,534.35 702.29,532.57 C692.96,530.80 680.08,526.63 672.50,522.92 C669.20,521.30 667.40,520.24 668.50,520.56 C684.28,525.16 695.65,526.96 709.00,526.98 C723.92,526.99 731.63,525.17 744.00,518.68 C756.60,512.08 762.04,508.01 773.64,496.53 C784.27,486.01 793.54,473.66 797.33,465.00 C809.75,436.54 813.30,419.98 811.17,400.37 C808.47,375.49 799.91,354.97 784.39,336.19 C780.44,331.41 774.93,325.72 772.14,323.55 C769.35,321.37 767.26,319.41 767.49,319.18 C768.24,318.43 776.33,323.70 783.24,329.43 C800.22,343.53 813.30,364.82 819.78,388.93 C822.07,397.47 822.35,400.39 822.37,416.00 C822.39,435.16 822.03,437.06 814.64,457.37 C807.77,476.23 799.20,489.53 784.81,503.66 C770.84,517.39 754.47,527.70 740.50,531.57 ZM 598.89 357.52 C596.04,360.53 593.33,363.00 592.85,363.00 C592.38,363.00 592.00,342.30 592.00,317.00 L 592.00 271.01 L 801.50 270.50 L 802.00 265.00 C802.41,260.52 802.92,259.32 804.75,258.51 C806.93,257.56 807.00,257.08 807.00,243.76 L 807.00 230.00 L 819.05 230.00 L 818.77 247.25 C818.51,264.17 818.46,264.51 816.30,264.81 C814.33,265.09 814.06,265.81 813.80,271.31 L 813.50 277.50 L 602.68 278.01 L 603.38 315.02 L 604.08 352.04 ZM 661.40 460.75 C662.04,462.24 662.04,462.24 659.50,460.81 C655.30,458.42 645.23,450.33 638.64,444.05 C629.81,435.62 606.00,409.51 606.00,408.25 C606.00,406.54 617.98,394.16 628.37,385.14 C656.01,361.14 675.80,350.30 698.45,346.75 C706.65,345.47 714.46,346.52 723.43,350.12 C730.71,353.05 732.15,355.29 725.80,353.81 C718.39,352.09 705.54,353.39 695.00,356.93 C673.75,364.06 653.36,377.96 628.78,402.10 C617.34,413.33 616.86,413.96 618.28,415.99 C621.74,420.93 649.22,449.91 654.79,454.50 C658.14,457.25 661.11,460.06 661.40,460.75 ZM 705.00 723.98 C691.09,730.96 688.03,731.79 685.69,729.21 C684.76,728.18 684.00,726.17 684.00,724.74 C684.00,722.44 685.24,721.52 694.92,716.63 C712.44,707.79 714.00,706.74 714.00,703.80 C714.00,702.77 715.85,700.16 718.10,698.02 L 722.21 694.11 L 713.26 676.73 L 704.31 659.34 L 703.69 643.42 C703.35,634.66 702.16,620.08 701.05,611.00 L 700.91 609.82 C699.02,594.36 698.64,591.28 699.98,590.03 C700.35,589.69 700.84,589.48 701.47,589.20 C704.75,587.70 706.40,589.40 708.09,595.97 C708.80,598.74 709.68,601.00 710.05,601.00 C711.01,601.00 713.81,627.38 715.08,648.50 L 716.16 666.50 L 723.94 681.50 C724.32,682.24 724.69,682.95 725.04,683.63 C731.37,695.83 733.13,699.23 732.19,701.51 C731.78,702.52 730.83,703.31 729.52,704.55 C727.51,706.44 726.12,708.39 726.42,708.88 C727.25,710.22 723.37,714.66 719.73,716.54 C717.95,717.45 711.33,720.80 705.00,723.98 ZM 397.05 451.45 C394.86,453.44 394.74,453.42 392.24,450.75 C388.16,446.39 382.89,436.40 380.33,428.20 C377.95,420.60 377.78,418.87 378.26,407.70 C379.11,387.92 382.66,379.94 396.71,366.18 C403.36,359.67 411.75,354.15 420.73,350.39 C426.99,347.77 428.47,347.55 440.50,347.56 C451.51,347.56 454.50,347.91 460.00,349.86 C463.58,351.12 467.85,353.06 469.50,354.16 L 472.50 356.15 L 469.50 355.59 C454.94,352.82 451.25,352.64 443.03,354.26 C423.50,358.10 405.22,371.63 394.72,390.00 C391.96,394.81 389.00,408.23 389.00,415.89 C389.00,418.53 388.31,421.54 387.41,422.82 C385.68,425.29 386.14,428.00 388.29,428.00 C389.05,428.00 390.40,430.47 391.42,433.75 C392.39,436.91 394.45,441.84 395.98,444.70 C398.59,449.59 398.65,450.00 397.05,451.45 ZM 463.30 533.51 C448.55,535.73 439.16,535.22 426.36,531.50 C420.04,529.67 409.76,524.67 414.00,525.49 C436.64,529.91 452.46,528.61 476.25,520.38 C485.64,517.13 506.74,506.11 510.20,502.65 C510.94,501.92 512.55,500.78 513.78,500.12 C517.85,497.94 533.35,484.45 542.42,475.19 C547.32,470.18 551.71,466.32 552.17,466.60 C552.62,466.89 553.00,470.65 553.00,474.98 L 553.00 482.83 L 546.75 488.83 C521.55,512.99 491.04,529.33 463.30,533.51 ZM 552.00 271.00 L 552.00 278.00 L 451.67 278.00 C396.48,278.00 351.03,277.70 350.67,277.33 C350.30,276.97 350.00,275.39 350.00,273.83 L 350.00 271.00 ZM 432.41 659.50 C421.14,672.01 418.00,675.02 418.00,673.30 C418.01,672.86 418.89,671.05 419.98,669.27 C421.06,667.49 424.50,661.05 427.61,654.95 C433.14,644.14 433.26,643.72 432.70,637.65 C432.16,631.94 432.29,631.34 434.28,630.46 C435.48,629.93 437.44,627.92 438.65,626.00 C439.87,624.08 441.95,621.15 443.29,619.50 C444.62,617.85 449.66,609.19 454.47,600.25 C459.29,591.31 463.74,584.01 464.37,584.02 C466.13,584.06 473.68,587.67 474.39,588.83 C475.11,589.99 460.21,617.89 453.35,628.22 C450.89,631.92 447.60,635.86 446.04,636.97 C443.57,638.73 443.25,639.50 443.66,642.75 C444.12,646.35 443.68,647.01 432.41,659.50 ZM 632.50 747.56 C623.64,749.14 605.20,750.31 603.25,749.41 C602.56,749.09 602.00,747.59 602.00,746.08 C602.00,743.33 602.04,743.32 612.25,742.06 C631.42,739.71 636.00,737.96 636.00,732.99 C636.00,730.55 636.62,729.77 639.50,728.56 C641.42,727.76 643.00,726.43 643.00,725.60 C643.00,724.18 636.94,693.62 635.14,685.98 C634.69,684.04 633.76,681.41 633.08,680.14 C631.34,676.90 632.51,676.29 636.28,678.45 C644.02,682.87 645.74,686.08 648.90,702.00 C650.05,707.78 651.85,716.78 652.90,722.00 C654.63,730.57 654.66,731.67 653.28,733.22 C652.43,734.17 650.90,735.22 649.87,735.54 C648.63,735.93 648.00,737.08 648.00,738.91 C648.00,743.69 645.09,745.31 632.50,747.56 ZM 573.78 749.44 C571.00,751.39 569.02,751.32 550.50,748.61 C535.17,746.36 531.00,745.05 531.00,742.46 C531.00,740.77 532.82,740.65 539.61,741.90 C542.30,742.39 548.17,743.11 552.65,743.50 C560.11,744.13 560.99,744.01 562.90,742.10 C564.06,740.94 565.00,738.99 565.01,737.75 C565.01,736.30 566.08,734.89 568.01,733.80 C570.81,732.20 571.01,731.69 571.12,725.80 C571.18,722.33 571.52,713.42 571.87,706.00 L 572.50 692.50 L 575.48 692.16 C579.39,691.72 585.64,693.63 586.35,695.48 C586.66,696.28 586.28,697.58 585.50,698.36 C584.42,699.43 583.91,704.39 583.41,718.64 C582.70,738.45 582.07,741.00 577.85,741.00 C576.41,741.00 576.00,741.76 576.00,744.44 C576.00,746.87 575.34,748.35 573.78,749.44 ZM 769.14 680.24 C763.45,685.33 757.81,690.02 756.62,690.66 C753.34,692.43 751.22,690.65 750.44,685.48 L 749.77 680.99 L 757.14 674.24 C767.37,664.88 769.76,662.28 773.45,656.52 C775.22,653.76 777.42,650.88 778.33,650.13 C780.82,648.08 780.41,645.86 775.84,636.65 C773.53,631.98 771.95,627.57 772.29,626.69 C772.62,625.82 774.01,624.39 775.37,623.49 C777.74,621.94 778.02,622.00 782.17,625.01 C787.03,628.53 787.41,629.61 784.82,632.56 C783.06,634.56 783.14,634.85 787.65,643.77 C792.11,652.58 792.22,653.00 790.61,655.21 C789.69,656.47 787.84,659.08 786.50,661.00 C785.16,662.92 783.03,665.96 781.78,667.74 C780.53,669.51 774.84,675.14 769.14,680.24 ZM 525.04 699.92 C524.46,702.91 523.81,705.52 523.60,705.74 C523.38,705.95 522.87,700.81 522.46,694.31 C521.15,673.60 523.68,608.04 525.87,605.76 C526.53,605.07 531.55,606.30 535.00,608.01 C535.23,608.12 535.42,608.21 535.59,608.34 C536.62,609.15 536.50,611.44 535.53,629.12 L 535.49 629.75 C535.06,637.59 534.39,644.00 534.00,644.00 C533.61,644.00 533.00,648.17 532.64,653.26 C532.09,661.15 529.70,675.82 525.04,699.92 ZM 598.80 516.75 L 598.50 523.50 L 582.44 523.77 C573.61,523.92 566.07,523.74 565.69,523.36 C565.31,522.98 565.00,521.39 565.00,519.83 L 565.00 517.00 L 575.44 517.00 C582.70,517.00 586.13,516.62 586.69,515.75 C587.14,515.06 587.50,512.27 587.50,509.55 C587.50,505.09 587.75,504.54 590.00,504.01 L 592.50 503.41 L 593.00 484.46 L 593.50 465.50 L 603.96 476.50 L 604.00 510.00 L 601.55 510.00 C599.21,510.00 599.08,510.33 598.80,516.75 ZM 808.64 635.75 C806.25,638.46 804.47,638.49 800.50,635.89 C798.85,634.81 796.89,633.56 796.15,633.12 C795.13,632.51 796.23,630.40 800.70,624.41 C808.49,613.95 821.37,593.24 822.57,589.26 C822.61,589.13 825.09,589.88 828.07,590.93 C831.22,592.04 833.64,593.53 833.83,594.47 C834.22,596.38 825.95,611.27 818.61,621.88 C815.80,625.94 812.85,630.22 812.06,631.38 C811.27,632.55 809.73,634.51 808.64,635.75 ZM 414.99 590.77 C410.87,596.36 407.05,600.93 406.50,600.92 C404.75,600.90 397.00,594.94 397.00,593.62 C397.00,592.92 399.38,589.23 402.29,585.42 C405.20,581.62 410.01,575.01 412.97,570.75 C415.94,566.49 418.85,563.00 419.43,563.00 C421.79,562.99 429.00,567.60 429.00,569.11 C429.00,570.00 428.08,571.89 426.97,573.32 C425.85,574.74 424.38,576.96 423.71,578.26 C423.04,579.56 419.11,585.19 414.99,590.77 ZM 374.38 646.02 C372.12,649.03 369.37,652.30 368.28,653.27 C366.36,654.98 366.16,654.91 361.90,651.10 C357.76,647.40 357.58,647.02 358.89,644.83 C362.38,638.97 378.42,618.00 379.40,618.01 C380.01,618.02 382.42,619.81 384.77,621.99 L 389.03 625.95 L 385.27 631.04 C383.19,633.84 380.83,637.13 380.00,638.34 C379.17,639.55 376.65,643.01 374.38,646.02 ZM 425.10 415.11 C418.89,418.17 414.58,421.28 408.58,427.04 C401.98,433.37 400.13,434.65 398.73,433.87 C395.90,432.28 396.69,430.47 402.95,424.21 C413.57,413.59 425.34,407.02 438.62,404.32 C447.70,402.46 453.07,403.30 462.54,408.03 C467.79,410.66 468.09,410.95 465.00,410.47 C456.27,409.14 444.99,408.88 439.50,409.88 C436.20,410.49 429.72,412.84 425.10,415.11 ZM 672.00 431.00 C670.36,434.07 667.45,435.24 665.95,433.44 C664.01,431.10 666.42,427.57 674.98,420.26 C688.82,408.43 708.06,401.35 719.44,403.90 C722.26,404.53 727.26,406.39 730.54,408.03 C735.78,410.65 736.08,410.94 733.00,410.47 C724.17,409.11 712.00,408.86 706.83,409.93 C703.77,410.57 697.95,412.67 693.91,414.61 C686.29,418.26 673.83,427.59 672.00,431.00 ZM 459.20 713.50 C457.67,715.70 455.53,717.59 454.46,717.71 C452.29,717.94 442.00,713.05 442.00,711.79 C442.00,711.36 442.68,711.00 443.51,711.00 C444.34,711.00 446.58,708.64 448.48,705.75 C452.81,699.18 457.98,691.75 458.93,690.73 C459.60,690.00 471.00,694.61 471.00,695.61 C471.00,696.06 464.65,705.70 459.20,713.50 ZM 635.21 669.31 C633.72,671.22 632.05,673.54 631.50,674.45 C630.84,675.56 630.16,675.78 629.50,675.13 C628.95,674.59 626.18,672.98 623.35,671.57 L 618.20 669.00 L 621.25 665.75 C626.12,660.57 627.99,656.82 628.00,652.25 C628.00,646.09 628.30,646.26 635.58,656.65 C639.61,662.39 639.57,663.71 635.21,669.31 ZM 585.28 657.02 C584.43,660.31 584.12,660.52 579.68,660.81 C576.38,661.02 574.82,660.70 574.45,659.73 C574.16,658.96 574.05,654.33 574.21,649.42 L 574.50 640.50 L 577.31 640.18 C582.12,639.63 584.76,642.23 585.51,648.25 C585.88,651.16 585.77,655.11 585.28,657.02 ZM 527.93 742.59 C526.60,744.19 524.09,744.25 519.00,742.80 C498.42,736.98 489.14,733.87 487.91,732.39 C486.22,730.36 488.49,730.57 498.23,733.38 C510.88,737.03 514.80,737.49 516.90,735.59 C518.54,734.10 518.75,734.16 519.77,736.40 C520.47,737.94 522.08,739.07 524.19,739.52 C528.73,740.50 529.28,740.95 527.93,742.59 ZM 505.00 431.59 C505.00,432.23 504.35,433.29 503.56,433.95 C502.39,434.92 501.26,434.36 497.57,430.96 C495.07,428.65 493.30,426.32 493.64,425.77 C493.98,425.22 491.18,421.90 487.42,418.39 C483.65,414.87 481.07,412.00 481.68,412.00 C484.71,412.00 505.00,429.04 505.00,431.59 ZM 773.00 431.46 C773.00,432.17 772.35,433.29 771.56,433.95 C770.39,434.92 769.26,434.36 765.56,430.95 C763.05,428.64 761.00,425.93 761.00,424.94 C761.00,423.95 758.30,420.79 754.99,417.91 C751.69,415.04 749.18,412.49 749.42,412.24 C750.85,410.81 773.00,428.87 773.00,431.46 ZM 662.43 618.21 C663.56,622.21 662.70,623.86 660.75,621.47 C659.86,620.39 657.08,617.05 654.57,614.06 C652.06,611.07 650.00,608.26 650.00,607.81 C650.00,607.36 651.18,607.00 652.62,607.00 C654.35,607.00 656.36,608.23 658.57,610.64 C660.40,612.65 661.85,614.56 661.79,614.89 C661.72,615.23 662.01,616.72 662.43,618.21 ZM 552.00 350.50 C552.00,352.76 550.93,352.30 546.00,347.89 C543.53,345.68 537.55,340.69 532.72,336.79 C527.90,332.90 524.19,329.48 524.47,329.19 C525.76,327.91 552.00,348.22 552.00,350.50 ZM 493.45 463.09 C492.31,464.93 490.32,463.89 485.46,458.94 C481.01,454.40 480.80,453.99 483.39,454.97 C487.32,456.45 494.14,461.96 493.45,463.09 ZM 482.07 661.31 C481.51,662.79 480.57,664.00 479.99,664.00 C477.81,664.00 477.88,660.92 480.15,657.28 C482.43,653.60 482.51,653.57 482.80,656.06 C482.96,657.47 482.64,659.83 482.07,661.31 ZM 520.00 729.94 C520.00,732.46 518.39,733.45 517.60,731.41 C516.65,728.92 516.89,728.00 518.50,728.00 C519.33,728.00 520.00,728.87 520.00,729.94 Z" fill="rgb(47,40,40)"/>
<path d="M 549.71 485.98 L 553.00 482.83 L 553.00 474.98 C553.00,470.65 552.62,466.89 552.17,466.60 C551.71,466.32 547.32,470.18 542.42,475.19 C533.35,484.45 517.85,497.94 513.78,500.12 C512.55,500.78 510.94,501.92 510.20,502.65 C506.74,506.11 485.64,517.13 476.25,520.38 C452.46,528.61 436.64,529.91 414.00,525.49 C412.50,525.20 412.82,525.64 414.13,526.41 C412.17,525.48 410.15,524.46 408.03,523.36 C386.53,512.19 370.83,499.24 358.36,482.41 C339.32,456.71 333.94,427.88 342.14,395.52 C344.36,386.74 346.50,382.06 345.57,388.00 C343.93,398.47 343.01,412.29 343.56,418.00 C346.93,452.79 367.64,483.35 401.71,503.83 C422.64,516.40 447.77,518.45 475.00,509.81 C500.02,501.87 524.51,485.91 547.23,462.74 L 557.97 451.80 L 558.23 477.65 L 558.50 503.50 L 592.13 503.50 L 590.00 504.01 C587.75,504.54 587.50,505.09 587.50,509.55 C587.50,512.27 587.14,515.06 586.69,515.75 C586.13,516.62 582.70,517.00 575.44,517.00 L 565.00 517.00 L 565.00 519.83 C565.00,520.10 565.01,520.36 565.03,520.63 L 565.00 520.50 C564.52,517.66 564.20,517.48 559.24,517.20 L 554.00 516.90 L 554.00 500.45 C554.00,487.67 553.71,484.00 552.71,484.00 C552.27,484.00 551.11,484.79 549.71,485.98 ZM 552.00 271.00 L 350.00 271.00 L 350.00 273.67 C349.62,272.22 348.64,272.03 344.69,271.80 L 339.50 271.50 L 338.95 237.00 L 344.00 237.00 L 344.00 257.99 L 557.50 258.50 L 557.76 308.25 C557.90,335.61 557.68,357.98 557.26,357.96 C556.84,357.93 553.17,354.76 549.09,350.90 C546.67,348.60 543.08,345.42 539.55,342.40 C542.24,344.64 544.65,346.68 546.00,347.89 C550.93,352.30 552.00,352.76 552.00,350.50 C552.00,349.62 548.08,346.05 543.20,342.07 C548.17,345.94 552.29,349.00 552.53,349.00 C552.79,349.00 553.00,333.03 553.00,313.50 L 553.00 278.01 L 549.22 278.00 L 552.00 278.00 ZM 604.00 507.23 L 603.96 476.50 L 593.50 465.50 L 593.00 484.46 L 592.50 503.36 L 592.77 475.07 L 593.03 446.64 L 605.93 459.74 C634.87,489.13 662.23,505.73 693.14,512.62 C704.42,515.14 723.48,514.92 733.30,512.17 C748.24,507.97 763.18,498.75 777.57,484.83 C792.60,470.29 802.73,454.11 807.85,436.80 C805.51,445.03 802.06,454.15 797.33,465.00 C793.54,473.66 784.27,486.01 773.64,496.53 C762.04,508.01 756.60,512.08 744.00,518.68 C731.63,525.17 723.92,526.99 709.00,526.98 C695.65,526.96 684.28,525.16 668.50,520.56 C667.59,520.29 668.67,520.98 670.96,522.15 C668.52,521.02 666.00,519.80 663.41,518.48 C641.92,507.58 627.23,497.60 612.23,483.68 L 604.50 476.51 L 604.23 493.26 ZM 592.44 271.01 L 592.50 258.50 L 699.75 258.25 L 805.70 257.99 C805.44,258.20 805.12,258.35 804.75,258.51 C802.92,259.32 802.41,260.52 802.00,265.00 L 801.50 270.50 ZM 773.00 431.46 C773.00,429.87 764.68,422.47 757.90,417.31 C760.71,419.37 763.72,421.76 766.16,423.94 C769.27,426.72 772.15,429.00 772.56,429.00 C772.96,429.00 773.03,424.84 772.70,419.75 C771.42,399.70 764.07,382.49 750.78,368.45 C745.48,362.85 741.14,359.27 737.68,357.63 C731.51,354.72 724.86,353.20 717.78,353.06 C720.81,353.05 723.55,353.29 725.80,353.81 C732.15,355.29 730.71,353.05 723.43,350.12 C714.46,346.52 706.65,345.47 698.45,346.75 C675.80,350.30 656.01,361.14 628.37,385.14 C617.98,394.16 606.00,406.54 606.00,408.25 C606.00,409.33 623.45,428.62 634.01,439.44 C628.25,433.64 621.66,426.55 613.64,417.58 L 602.09 404.67 L 606.30 399.62 C613.72,390.70 633.20,371.86 643.50,363.64 C659.91,350.54 673.56,342.53 688.50,337.23 C693.98,335.29 698.11,334.65 707.50,334.29 C718.40,333.87 720.17,334.06 726.83,336.35 C750.04,344.30 768.19,365.06 775.04,391.50 C778.75,405.80 777.67,424.52 772.90,432.02 C772.96,431.82 773.00,431.63 773.00,431.46 ZM 466.01 354.93 C467.10,355.13 468.26,355.35 469.50,355.59 L 472.50 356.15 L 469.50 354.16 C467.85,353.06 463.58,351.12 460.00,349.86 C454.50,347.91 451.51,347.56 440.50,347.56 C428.47,347.55 426.99,347.77 420.73,350.39 C411.75,354.15 403.36,359.67 396.71,366.18 C389.20,373.54 384.69,379.24 381.99,385.98 C384.29,378.86 387.52,371.98 391.62,365.82 C400.93,351.82 417.73,339.44 432.64,335.59 C454.84,329.86 481.83,339.63 512.92,364.64 C521.98,371.93 543.08,392.54 549.33,400.21 L 553.17 404.91 L 549.92 408.95 C548.13,411.18 546.11,413.00 545.43,413.00 C544.75,413.00 540.80,409.27 536.67,404.72 C527.18,394.26 509.43,378.34 498.73,370.68 C487.56,362.68 476.54,357.40 466.01,354.93 ZM 679.64 363.35 C663.81,371.51 646.73,384.47 628.78,402.10 C647.41,383.80 663.63,371.39 679.64,363.35 ZM 708.53 533.32 C716.22,533.89 726.40,533.66 733.85,532.77 C730.56,533.21 726.79,533.56 723.50,533.71 C718.38,533.95 713.44,533.83 708.53,533.32 ZM 379.02 398.15 C378.65,401.03 378.41,404.18 378.26,407.70 C378.13,410.76 378.05,413.11 378.04,415.07 C377.72,409.61 378.06,403.89 379.02,398.15 ZM 489.70 526.23 C500.22,522.08 510.78,516.47 520.98,509.62 C519.78,510.45 518.62,511.23 517.50,511.96 C508.81,517.63 499.28,522.49 489.70,526.23 ZM 771.26 434.17 L 770.31 435.33 L 765.66 431.04 C768.97,434.08 770.19,434.80 771.26,434.17 ZM 798.82 357.89 C795.33,351.31 790.84,344.44 786.15,338.36 C791.12,344.64 795.33,351.12 798.82,357.89 ZM 429.43 532.35 C437.88,534.55 445.07,535.25 453.82,534.61 C444.96,535.27 437.42,534.62 429.43,532.35 ZM 455.87 353.42 C452.49,353.21 449.16,353.32 445.91,353.74 C449.29,353.20 452.11,353.07 455.87,353.42 ZM 418.89 364.31 C409.13,370.76 400.63,379.66 394.72,389.99 C400.67,379.58 409.13,370.73 418.89,364.31 ZM 684.84 527.84 C688.78,529.18 692.91,530.40 696.79,531.35 C692.89,530.45 688.93,529.29 684.84,527.84 ZM 810.31 426.33 C811.22,421.17 811.70,415.93 811.75,410.62 C811.75,415.79 811.29,420.92 810.31,426.33 ZM 643.03 448.06 C646.14,450.79 649.51,453.57 652.50,455.89 C649.44,453.59 646.34,451.03 643.03,448.06 ZM 350.43 276.92 C350.51,277.11 350.58,277.25 350.67,277.33 C350.73,277.39 352.04,277.45 354.44,277.51 L 350.50 277.50 ZM 380.04 427.28 C380.13,427.58 380.23,427.89 380.33,428.20 C381.64,432.42 383.68,437.11 385.90,441.27 C383.72,437.20 381.72,432.66 380.46,428.70 C380.32,428.23 380.18,427.76 380.04,427.28 ZM 530.09 332.18 C527.37,330.33 525.31,329.12 524.65,329.13 C525.29,329.08 527.06,330.07 530.09,332.18 ZM 565.40 522.80 C565.49,523.06 565.59,523.25 565.69,523.36 C565.74,523.41 565.92,523.46 566.22,523.50 L 565.52 523.50 ZM 541.82 493.39 C543.22,492.14 544.60,490.87 545.97,489.57 C544.79,490.73 543.38,492.02 541.82,493.39 ZM 659.83 460.99 C660.80,461.54 661.34,461.84 661.59,461.87 C661.36,461.91 660.83,461.63 659.83,460.99 ZM 524.47 329.20 C524.38,329.33 524.90,329.95 525.87,330.88 C524.88,329.94 524.34,329.32 524.45,329.21 C524.46,329.21 524.46,329.20 524.47,329.20 ZM 592.72 362.42 C592.76,362.80 592.81,362.99 592.85,363.00 L 592.85 363.00 C592.80,363.00 592.76,362.80 592.72,362.42 Z" fill="rgb(118,1,3)"/>
<path d="M 717.19 698.93 C715.37,700.85 714.00,702.91 714.00,703.80 C714.00,706.74 712.44,707.79 694.92,716.63 C685.24,721.52 684.00,722.44 684.00,724.74 C684.00,725.76 684.38,727.07 684.94,728.11 C684.41,727.23 683.97,726.23 683.83,725.50 C683.52,723.81 682.81,723.55 679.31,723.83 C679.03,723.85 678.77,723.88 678.52,723.90 C677.54,723.99 676.81,724.06 676.17,723.85 C674.03,723.15 672.91,719.36 667.40,703.03 L 661.50 685.57 L 654.50 678.03 C650.65,673.89 645.78,668.47 643.67,666.00 C641.56,663.52 639.65,661.95 639.41,662.50 C639.27,662.83 638.82,663.63 638.23,664.57 C639.08,662.21 638.18,660.35 635.58,656.65 C628.30,646.26 628.00,646.09 628.00,652.25 C628.00,653.54 627.85,654.76 627.52,655.97 C628.24,652.46 627.60,648.01 626.08,640.14 C623.88,628.84 621.54,623.59 616.49,618.69 L 612.96 615.26 L 616.23 614.59 C618.69,614.09 619.75,614.33 620.50,615.56 C631.79,633.95 645.67,652.35 659.01,666.58 L 667.53 675.67 L 673.50 693.58 C676.78,703.44 680.12,712.30 680.92,713.29 C683.28,716.19 687.30,714.67 714.73,700.54 C715.49,700.15 716.36,699.57 717.19,698.93 ZM 527.93 742.59 C529.28,740.95 528.73,740.50 524.19,739.52 C522.08,739.07 520.47,737.94 519.77,736.40 C518.75,734.16 518.54,734.10 516.90,735.59 C514.80,737.49 510.88,737.03 498.23,733.38 C488.63,730.61 486.29,730.36 487.84,732.30 C487.78,732.26 487.72,732.21 487.67,732.16 C486.67,731.25 483.52,729.38 480.67,728.00 L 475.50 725.50 L 475.50 719.00 C475.50,715.42 475.84,709.54 476.26,705.92 C477.00,699.50 476.96,699.30 474.46,698.17 C471.45,696.79 470.68,696.60 468.82,699.23 C470.15,697.16 471.00,695.77 471.00,695.61 C471.00,694.61 459.60,690.00 458.93,690.73 C458.59,691.09 457.70,692.29 456.50,693.98 C457.10,693.06 457.75,692.04 458.48,690.89 C462.43,684.67 465.13,681.00 465.76,680.99 C466.42,680.98 481.92,687.04 482.88,687.67 C483.09,687.81 482.67,693.86 481.95,701.11 L 480.64 714.30 L 483.49 716.57 C485.05,717.82 487.89,719.13 489.79,719.49 C491.69,719.84 493.98,720.49 494.87,720.93 C497.34,722.13 505.65,724.58 513.76,726.50 C519.41,727.84 521.35,727.96 522.45,727.04 C523.58,726.10 524.51,726.32 526.91,728.09 C530.06,730.42 537.37,731.89 556.35,734.00 C556.79,734.05 557.21,734.09 557.62,734.14 C562.12,734.65 565.07,734.98 567.03,734.44 C565.72,735.42 565.01,736.57 565.01,737.75 C565.00,738.99 564.06,740.94 562.90,742.10 C560.99,744.01 560.11,744.13 552.65,743.50 C548.17,743.11 542.30,742.39 539.61,741.90 C532.82,740.65 531.00,740.77 531.00,742.46 C531.00,745.05 535.16,746.36 550.47,748.60 C535.68,746.44 531.58,745.22 530.75,742.76 C530.41,741.76 529.80,741.78 527.77,742.86 C527.69,742.90 527.62,742.94 527.54,742.98 C527.68,742.86 527.81,742.73 527.93,742.59 ZM 454.14 479.42 C445.11,481.13 441.24,481.22 433.55,479.94 C427.75,478.97 415.97,473.35 411.02,469.18 L 407.55 466.26 L 413.66 463.17 C431.03,454.40 449.18,453.89 464.80,461.72 C471.63,465.14 477.85,470.50 476.50,471.79 C474.49,473.72 462.28,477.89 454.14,479.42 ZM 711.12 605.82 C710.68,602.79 710.30,601.00 710.05,601.00 C709.68,601.00 708.80,598.74 708.09,595.97 C706.40,589.40 704.75,587.70 701.47,589.20 C701.19,589.32 700.95,589.43 700.72,589.54 C701.07,589.32 701.47,589.10 701.94,588.84 C704.04,587.64 704.72,586.63 704.35,585.22 C703.82,583.22 707.99,579.00 710.49,579.00 C712.20,579.00 721.82,601.34 731.16,626.99 C736.32,641.17 744.96,667.25 745.56,670.47 C746.28,674.31 748.47,676.13 751.17,675.12 C753.63,674.20 771.05,658.60 775.86,653.04 C775.07,654.10 774.22,655.32 773.45,656.52 C769.76,662.28 767.37,664.88 757.14,674.24 L 749.77 680.99 L 750.44 685.48 C750.78,687.69 751.35,689.29 752.17,690.24 C751.43,689.44 750.88,688.19 750.57,686.53 C749.93,683.13 747.84,681.83 746.50,684.00 C746.16,684.55 744.80,685.00 743.48,685.00 C741.37,685.00 740.83,684.14 738.94,677.75 C734.42,662.47 726.41,639.56 718.93,620.49 C713.36,606.28 710.54,601.01 711.12,605.82 ZM 727.73 477.78 C722.16,479.80 706.04,480.26 698.78,478.60 C691.79,477.00 678.19,472.11 677.46,470.93 C676.64,469.60 685.76,463.37 693.00,460.32 C698.73,457.90 700.80,457.58 710.50,457.55 C718.71,457.53 722.90,458.00 727.00,459.40 C733.72,461.69 744.00,466.76 743.99,467.76 C743.98,468.94 732.35,476.11 727.73,477.78 ZM 442.42 712.40 C430.82,706.33 414.39,696.77 408.36,692.14 C406.79,690.94 402.40,687.90 398.61,685.39 C388.21,678.50 376.66,669.13 375.23,666.44 C374.11,664.33 374.27,663.54 376.49,660.02 C379.14,655.82 380.69,655.03 381.60,657.40 C382.75,660.39 409.42,680.00 412.34,680.00 C413.21,680.00 414.40,680.89 414.99,681.97 C416.92,685.59 447.60,702.75 450.29,701.72 C450.89,701.49 451.52,700.97 452.46,699.82 C451.15,701.75 449.78,703.79 448.48,705.75 C446.58,708.64 444.34,711.00 443.51,711.00 C442.68,711.00 442.00,711.36 442.00,711.79 C442.00,711.95 442.15,712.15 442.42,712.40 ZM 584.87 699.66 C585.06,699.01 585.26,698.59 585.50,698.36 C586.28,697.58 586.66,696.28 586.35,695.48 C585.64,693.63 579.39,691.72 575.48,692.16 L 572.51 692.50 C572.56,691.80 572.60,691.18 572.64,690.65 L 573.23 682.81 L 582.20 683.15 C594.51,683.63 594.55,683.68 595.39,702.20 C596.69,730.93 596.92,732.64 599.66,733.89 C603.48,735.63 631.27,731.65 639.67,728.49 C639.61,728.52 639.56,728.54 639.50,728.56 C636.62,729.77 636.00,730.55 636.00,732.99 C636.00,737.96 631.42,739.71 612.25,742.06 C602.04,743.32 602.00,743.33 602.00,746.08 C602.00,746.84 602.14,747.59 602.37,748.20 C602.07,747.79 601.90,747.31 601.82,746.75 C601.56,744.93 600.68,744.39 597.23,743.93 C594.88,743.62 592.43,742.83 591.78,742.18 C590.74,741.14 589.40,722.07 589.08,703.75 C589.01,699.46 588.77,699.00 586.65,699.00 C585.80,699.00 585.25,699.04 584.87,699.66 ZM 367.58 653.87 L 366.37 655.00 L 362.27 651.50 C360.02,649.58 357.30,648.00 356.22,648.00 C352.94,648.00 330.24,622.72 328.53,617.16 C327.97,615.36 328.45,614.14 330.59,611.91 C332.12,610.31 333.67,609.00 334.02,609.00 C334.38,609.00 337.88,612.94 341.81,617.75 C352.56,630.94 359.48,638.00 361.65,638.00 C363.50,638.00 366.61,634.17 380.07,615.28 C382.51,611.86 385.10,609.05 385.84,609.03 C388.02,608.98 396.72,616.23 398.63,619.69 C400.32,622.75 400.31,623.01 398.44,626.51 C395.43,632.14 394.37,632.61 392.54,629.07 C391.66,627.38 390.54,626.00 390.03,626.00 C389.36,626.00 386.69,629.20 380.92,637.03 C382.03,635.46 383.73,633.12 385.27,631.04 L 389.03 625.95 L 384.77 621.99 C382.42,619.81 380.01,618.02 379.40,618.01 C378.42,618.00 362.38,638.97 358.89,644.83 C357.58,647.02 357.76,647.40 361.90,651.10 C365.58,654.39 366.23,654.89 367.58,653.87 ZM 525.04 699.92 C529.70,675.82 532.09,661.15 532.64,653.26 C533.00,648.17 533.61,644.00 534.00,644.00 C534.34,644.00 534.90,639.11 535.32,632.64 C534.96,642.79 536.23,641.45 538.51,628.50 C539.47,623.00 540.48,617.94 540.74,617.25 C541.16,616.15 545.00,615.38 545.00,616.39 C545.00,616.60 544.36,620.32 543.58,624.64 C542.80,628.96 541.95,633.85 541.69,635.50 C541.42,637.15 539.57,647.50 537.57,658.50 C535.56,669.50 533.30,682.10 532.54,686.50 C531.77,690.90 529.99,700.67 528.58,708.22 C527.16,715.77 526.00,722.18 526.00,722.47 C526.00,722.76 525.59,723.00 525.10,723.00 C524.05,723.00 523.35,714.09 522.97,701.17 C523.23,704.05 523.47,705.87 523.60,705.74 C523.81,705.52 524.46,702.91 525.04,699.92 ZM 574.60 640.49 C574.90,635.50 575.29,631.33 575.65,630.76 C576.65,629.13 588.17,630.73 590.23,632.78 C591.59,634.15 592.13,636.93 592.61,645.02 C593.23,655.43 593.22,655.52 590.58,657.96 L 587.92 660.42 L 587.34 658.21 C586.82,656.21 586.00,655.62 585.41,656.43 C585.79,654.37 585.84,650.89 585.51,648.25 C584.76,642.23 582.12,639.63 577.31,640.18 ZM 779.11 643.89 C778.25,641.77 776.85,638.69 775.28,635.52 L 770.55 626.01 L 777.00 619.50 C780.54,615.93 783.79,613.00 784.21,613.00 C784.63,613.00 788.14,615.03 792.00,617.50 C795.86,619.97 799.61,622.00 800.32,622.00 C801.54,622.00 803.48,620.22 806.16,616.66 C804.22,619.53 802.34,622.20 800.70,624.41 C796.23,630.40 795.13,632.51 796.15,633.12 C796.66,633.42 797.74,634.10 798.90,634.84 C794.27,632.26 789.63,630.00 788.73,630.00 C787.97,630.00 786.37,631.04 785.18,632.31 L 784.13 633.42 C784.31,633.15 784.54,632.87 784.82,632.56 C787.41,629.61 787.03,628.53 782.17,625.01 C778.02,622.00 777.74,621.94 775.37,623.49 C774.01,624.39 772.62,625.82 772.29,626.69 C771.95,627.57 773.53,631.98 775.84,636.65 C777.40,639.78 778.47,642.11 779.11,643.89 ZM 662.43 618.21 C662.01,616.72 661.72,615.23 661.79,614.89 C661.85,614.56 660.40,612.65 658.57,610.64 C656.73,608.64 655.04,607.45 653.52,607.11 C655.02,607.45 656.70,608.60 658.44,610.50 C658.48,610.55 658.52,610.60 658.57,610.64 C660.29,612.50 661.97,614.00 662.36,614.00 C662.75,614.00 662.77,611.74 662.40,608.97 C661.86,604.92 662.08,603.57 663.52,601.97 C664.51,600.89 666.06,600.00 666.97,600.00 C668.63,600.00 669.28,603.69 671.62,626.75 C671.97,630.19 671.86,633.00 671.38,633.00 C670.41,633.00 657.98,618.60 652.53,611.55 C653.14,612.33 653.84,613.19 654.57,614.06 C657.08,617.05 659.86,620.39 660.75,621.47 C662.70,623.86 663.56,622.21 662.43,618.21 ZM 482.07 661.31 C482.64,659.83 482.96,657.47 482.80,656.06 C482.52,653.70 482.44,653.61 480.50,656.72 C481.23,655.40 482.09,653.92 483.00,652.40 C485.75,647.84 488.00,643.63 488.00,643.05 C488.00,642.47 488.51,642.00 489.13,642.00 C490.31,642.00 489.98,646.22 487.86,658.75 C486.93,664.18 486.51,664.99 484.65,664.94 C483.12,664.89 481.51,664.49 480.25,663.93 C480.82,663.66 481.59,662.59 482.07,661.31 ZM 766.51 605.99 C763.13,609.52 761.39,609.79 760.48,606.95 C760.12,605.82 758.28,602.15 756.39,598.81 C754.50,595.46 753.16,592.50 753.43,592.24 C753.83,591.83 765.54,599.56 768.44,602.15 C769.01,602.65 768.23,604.19 766.51,605.99 ZM 432.49 635.25 C432.06,633.71 431.39,632.16 430.50,630.42 C429.13,627.71 428.01,625.39 428.00,625.25 C428.00,625.11 429.06,625.00 430.35,625.00 C434.18,625.00 439.30,622.91 442.32,620.11 C443.88,618.68 449.22,609.96 454.19,600.75 C456.67,596.15 459.05,591.97 460.90,588.94 C459.12,591.87 456.84,595.86 454.47,600.25 C449.66,609.19 444.62,617.85 443.29,619.50 C441.95,621.15 439.87,624.08 438.65,626.00 C437.44,627.92 435.48,629.93 434.28,630.46 C432.62,631.20 432.25,631.74 432.49,635.25 ZM 520.00 729.94 C520.00,728.87 519.33,728.00 518.50,728.00 C516.89,728.00 516.65,728.92 517.60,731.41 C518.39,733.45 520.00,732.46 520.00,729.94 ZM 572.46 693.26 L 571.87 706.00 C571.52,713.42 571.18,722.33 571.12,725.80 C571.02,730.80 570.87,731.93 569.10,733.13 C570.94,730.87 571.02,725.79 571.42,715.30 C571.71,707.56 572.14,698.53 572.46,693.26 ZM 605.44 749.69 C609.73,749.86 619.04,749.29 626.48,748.42 C622.68,748.94 618.85,749.38 615.73,749.62 C610.86,750.00 607.59,750.05 605.44,749.69 ZM 714.91 645.77 C713.97,631.30 712.41,615.05 711.24,606.68 C711.26,606.81 711.29,606.96 711.31,607.11 C712.45,613.68 713.84,628.66 714.91,645.77 ZM 580.55 740.15 C581.96,738.80 582.58,735.45 583.02,727.63 C583.01,728.35 583.00,729.01 583.00,729.60 C583.00,735.55 582.33,738.77 580.55,740.15 ZM 525.86 605.76 C525.97,605.65 526.19,605.59 526.49,605.57 C526.19,605.59 525.98,605.65 525.87,605.76 C525.01,606.65 524.10,617.25 523.39,631.06 C523.94,617.09 524.77,606.88 525.86,605.76 ZM 429.43 651.38 C431.47,647.01 432.57,643.77 432.92,640.99 C432.94,643.86 432.22,645.81 429.43,651.38 ZM 495.62 735.77 C500.05,737.27 506.46,739.22 515.17,741.71 C507.89,739.82 500.81,737.65 495.62,735.77 ZM 634.72 669.95 C634.06,670.95 633.42,671.93 632.92,672.71 L 630.85 675.93 L 630.12 675.49 C630.58,675.56 631.05,675.21 631.50,674.45 C631.99,673.64 633.37,671.71 634.72,669.95 ZM 826.65 609.22 C830.89,602.03 834.08,595.67 833.83,594.47 C834.13,595.91 831.32,601.52 826.65,609.22 ZM 815.38 602.34 C818.78,596.55 822.27,590.27 822.57,589.26 C822.03,591.05 819.13,596.23 815.38,602.34 ZM 777.55 650.92 C778.66,649.43 779.52,648.04 779.85,647.19 C779.85,648.48 779.32,649.32 778.33,650.13 C778.13,650.30 777.86,650.57 777.55,650.92 ZM 635.59 746.98 C640.08,746.09 643.04,745.25 644.94,744.20 C644.23,744.68 643.42,745.08 642.50,745.41 C641.28,745.85 638.75,746.41 635.59,746.98 ZM 478.48 662.81 C478.18,662.51 478.00,662.19 478.00,661.89 C478.00,661.63 478.36,660.78 478.98,659.57 C478.45,660.89 478.29,662.02 478.48,662.81 ZM 720.19 696.03 L 722.00 693.72 L 722.21 694.11 ZM 632.99 679.99 C632.09,678.31 632.05,677.37 632.79,677.21 C632.05,677.38 632.13,678.37 633.08,680.14 C633.76,681.41 634.69,684.04 635.14,685.98 C635.39,687.03 635.72,688.51 636.10,690.29 C634.76,684.43 633.88,681.64 632.99,679.99 ZM 755.39 691.18 C755.78,691.07 756.19,690.90 756.62,690.66 C757.69,690.09 762.32,686.26 767.37,681.81 C762.60,686.09 758.15,689.85 756.66,690.66 C756.22,690.90 755.79,691.07 755.39,691.18 ZM 467.04 701.95 C464.60,705.80 462.38,709.08 460.50,711.64 C462.79,708.31 465.15,704.82 467.04,701.95 ZM 642.47 726.61 C642.80,725.93 642.83,724.85 642.52,722.57 C642.82,724.26 643.00,725.36 643.00,725.60 C643.00,725.89 642.81,726.24 642.47,726.61 ZM 574.42 659.62 C574.39,659.57 574.36,659.51 574.34,659.45 C573.99,658.52 574.05,652.47 574.32,646.15 L 574.21 649.42 C574.05,654.14 574.15,658.61 574.42,659.62 ZM 803.26 637.41 C804.51,637.90 805.51,637.94 806.46,637.52 C805.32,638.12 804.31,638.05 803.26,637.41 ZM 456.30 716.70 C455.60,717.37 455.05,717.75 454.66,717.83 C454.47,717.86 454.10,717.80 453.58,717.63 C453.94,717.70 454.24,717.73 454.46,717.71 C454.92,717.66 455.58,717.28 456.30,716.70 ZM 432.41 659.50 C422.98,669.96 418.69,674.42 418.20,673.73 C419.05,673.97 422.73,670.24 432.41,659.50 ZM 629.41 675.05 L 627.17 673.68 C626.57,673.31 625.89,672.91 625.20,672.52 C627.17,673.58 628.86,674.58 629.41,675.05 ZM 535.94 621.47 C536.29,614.74 536.40,611.56 536.23,609.95 C536.44,611.58 536.33,614.76 535.94,621.47 ZM 620.26 670.03 L 618.11 669.09 L 618.20 669.00 ZM 423.26 663.30 C421.91,665.84 420.78,667.92 420.15,668.98 C420.52,668.28 420.94,667.51 421.41,666.66 C422.06,665.49 422.67,664.38 423.26,663.30 ZM 584.68 658.95 C584.44,659.74 583.98,660.16 582.91,660.43 C583.84,660.18 584.31,659.77 584.68,658.95 ZM 581.20 660.69 C580.76,660.73 580.28,660.77 579.74,660.81 C577.44,660.95 576.11,660.89 575.31,660.52 C576.14,660.86 577.54,660.94 579.68,660.81 C580.25,660.77 580.75,660.73 581.20,660.69 ZM 576.62 741.39 C576.18,741.87 576.00,742.82 576.00,744.44 C576.00,742.78 576.16,741.85 576.62,741.39 ZM 809.09 635.22 C809.39,634.87 809.71,634.48 810.02,634.09 C809.70,634.50 809.39,634.88 809.09,635.22 Z" fill="rgb(178,27,67)"/>
<path d="M 661.40 460.75 C661.27,460.44 660.58,459.68 659.55,458.70 C659.61,458.74 659.67,458.78 659.72,458.82 L 662.94 461.09 L 667.22 457.18 C673.20,451.70 681.93,446.33 689.80,443.28 C699.53,439.51 718.07,438.87 730.08,441.88 C740.61,444.52 759.47,453.43 758.35,455.24 C757.29,456.96 747.03,466.41 745.68,466.90 C745.27,467.05 744.55,467.52 743.84,468.08 C743.94,467.95 743.99,467.84 743.99,467.76 C744.00,466.76 733.72,461.69 727.00,459.40 C722.90,458.00 718.71,457.53 710.50,457.55 C700.80,457.58 698.73,457.90 693.00,460.32 C685.76,463.37 676.64,469.60 677.46,470.93 C677.47,470.95 677.49,470.97 677.51,471.00 C671.05,467.89 664.22,464.15 660.24,461.39 C659.79,461.07 659.35,460.76 658.91,460.45 C659.11,460.58 659.31,460.70 659.50,460.81 L 659.83 460.99 C660.83,461.63 661.36,461.91 661.59,461.87 C661.90,461.92 661.74,461.55 661.40,460.75 ZM 397.05 451.45 C398.23,450.39 398.50,449.88 397.53,447.73 C398.06,448.61 398.52,449.20 398.84,449.40 C399.32,449.69 403.27,448.44 407.61,446.60 C411.96,444.77 418.75,442.53 422.71,441.63 C431.14,439.72 446.20,439.50 454.57,441.19 C460.89,442.46 478.11,450.87 486.94,456.85 C485.68,456.04 484.44,455.36 483.39,454.97 C480.80,453.99 481.01,454.40 485.46,458.94 C488.84,462.38 490.83,463.93 492.12,463.94 C489.56,465.73 483.07,468.93 476.42,471.87 C476.45,471.84 476.47,471.82 476.50,471.79 C477.85,470.50 471.63,465.14 464.80,461.72 C449.18,453.89 431.03,454.40 413.66,463.17 L 407.55 466.26 L 408.08 466.70 C404.37,463.69 400.71,460.25 397.22,456.46 C395.63,454.74 394.15,453.02 392.77,451.31 C394.77,453.41 395.02,453.29 397.05,451.45 ZM 528.47 708.78 C525.73,723.40 525.30,726.77 527.48,728.47 C527.27,728.35 527.09,728.22 526.91,728.09 C524.51,726.32 523.58,726.10 522.45,727.04 C521.89,727.51 521.10,727.71 519.71,727.61 C524.14,727.76 524.01,724.19 523.26,710.00 C523.10,706.98 522.97,703.63 522.87,700.04 C522.91,700.43 522.94,700.81 522.97,701.17 C523.35,714.09 524.05,723.00 525.10,723.00 C525.59,723.00 526.00,722.76 526.00,722.47 C526.00,722.18 527.10,716.08 528.47,708.78 ZM 429.52 336.51 C420.17,339.60 410.35,345.76 402.27,353.36 C402.67,352.97 403.08,352.59 403.49,352.20 C411.71,344.52 420.36,339.29 429.52,336.51 ZM 724.84 478.55 C719.41,480.00 712.40,480.26 705.05,479.42 C711.66,479.87 720.05,479.51 725.13,478.47 C725.03,478.50 724.94,478.53 724.84,478.55 ZM 737.68 357.63 C741.14,359.27 745.48,362.85 750.78,368.45 C745.33,362.69 740.34,358.82 734.81,356.39 C735.78,356.77 736.73,357.19 737.68,357.63 ZM 418.87 474.20 C424.02,476.93 429.94,479.33 433.55,479.94 C434.66,480.12 435.69,480.28 436.66,480.41 C435.61,480.32 434.63,480.19 433.72,480.02 C429.10,479.19 424.04,477.17 418.87,474.20 ZM 380.04 427.28 C380.18,427.76 380.32,428.23 380.46,428.70 C381.72,432.66 383.72,437.20 385.90,441.26 L 385.90 441.27 C386.12,441.67 386.34,442.07 386.55,442.46 C383.56,437.47 381.40,432.42 380.00,427.14 ZM 689.50 476.05 C688.01,475.57 686.22,474.88 684.25,474.05 C687.62,475.31 691.70,476.67 695.18,477.66 C693.26,477.19 691.36,476.66 689.50,476.05 ZM 387.15 373.46 C385.10,377.48 383.37,381.68 381.99,385.98 C381.82,386.41 381.65,386.84 381.49,387.28 C382.94,382.49 384.83,377.87 387.15,373.46 ZM 570.24 730.66 C569.96,731.72 569.60,732.52 569.10,733.13 C568.79,733.34 568.43,733.56 568.01,733.80 C567.65,734.00 567.32,734.21 567.03,734.44 C566.25,734.65 565.32,734.73 564.20,734.71 C566.29,734.61 567.72,734.17 568.73,733.25 C569.41,732.62 569.89,731.77 570.24,730.66 ZM 547.55 732.96 C540.20,732.02 535.28,731.18 531.94,730.25 C534.82,730.96 539.25,731.79 543.50,732.39 C544.92,732.58 546.27,732.78 547.55,732.96 ZM 613.64 417.58 C621.66,426.55 628.24,433.64 634.01,439.43 L 634.01 439.44 C634.65,440.09 635.27,440.71 635.85,441.30 C629.74,435.30 622.83,427.86 613.64,417.58 ZM 679.64 363.35 C682.54,361.89 685.43,360.58 688.33,359.40 C683.58,361.37 678.71,363.76 673.79,366.55 C675.76,365.41 677.71,364.34 679.64,363.35 ZM 490.56 459.49 C492.76,461.19 493.55,461.96 493.43,462.60 C493.15,461.89 492.03,460.72 490.56,459.49 ZM 741.86 469.77 C739.96,471.28 737.15,473.02 734.22,474.57 C737.04,472.98 739.95,471.15 741.86,469.77 ZM 474.58 340.61 C486.53,345.65 499.27,353.66 512.92,364.64 C499.34,353.71 486.54,345.69 474.58,340.61 ZM 634.57 396.54 C638.29,393.06 641.98,389.78 645.62,386.71 C642.03,389.80 638.18,393.22 634.57,396.54 ZM 460.23 478.08 C459.01,478.39 457.77,478.67 456.52,478.93 C458.66,478.44 460.98,477.82 463.24,477.15 C462.08,477.55 461.06,477.86 460.23,478.08 ZM 627.30 426.34 C624.72,423.53 622.45,421.01 620.79,419.08 L 626.67 425.64 C626.88,425.87 627.09,426.11 627.30,426.34 ZM 618.21 413.21 C618.65,412.49 619.42,411.57 620.62,410.27 C620.52,410.40 620.42,410.52 620.32,410.64 ZM 392.91 437.91 C392.32,436.41 391.79,434.95 391.42,433.75 C390.70,431.45 389.83,429.54 389.10,428.61 C389.83,429.54 390.72,431.45 391.44,433.75 C391.85,435.07 392.36,436.49 392.91,437.91 ZM 653.47 453.34 C652.12,452.09 650.24,450.26 648.04,448.07 C650.00,450.01 651.84,451.79 653.47,453.34 Z" fill="rgb(194,148,66)"/>
<path d="M 598.89 357.52 L 604.08 352.04 L 603.71 332.36 L 604.31 351.90 L 611.41 345.55 C629.22,329.62 651.82,314.79 669.31,307.55 C684.15,301.41 693.47,299.58 710.00,299.57 C727.35,299.56 735.85,301.54 750.59,309.05 C757.67,312.65 763.95,316.19 769.57,319.79 C768.44,319.22 767.69,318.97 767.49,319.18 C767.26,319.41 769.35,321.37 772.14,323.55 C774.93,325.72 780.44,331.41 784.39,336.19 C784.99,336.91 785.57,337.64 786.15,338.36 C790.84,344.44 795.33,351.31 798.82,357.89 C805.45,370.76 809.47,384.70 811.17,400.37 C811.55,403.85 811.75,407.25 811.75,410.62 C811.70,415.93 811.22,421.17 810.31,426.32 L 810.31 426.33 C809.70,429.69 808.88,433.16 807.85,436.80 C802.73,454.11 792.60,470.29 777.57,484.83 C763.18,498.75 748.24,507.97 733.30,512.17 C723.48,514.92 704.42,515.14 693.14,512.62 C662.23,505.73 634.87,489.13 605.93,459.74 L 593.03 446.64 L 592.77 475.07 L 592.50 503.36 L 592.50 503.41 L 592.13 503.50 L 558.50 503.50 L 558.23 477.65 L 557.97 451.80 L 547.23 462.74 C524.51,485.91 500.02,501.87 475.00,509.81 C447.77,518.45 422.64,516.40 401.71,503.83 C367.64,483.35 346.93,452.79 343.56,418.00 C343.01,412.29 343.93,398.47 345.57,388.00 C346.14,384.31 345.54,384.72 344.46,387.67 C346.00,382.99 348.01,377.54 350.71,370.50 C362.74,339.07 386.51,315.12 416.15,304.56 C436.46,297.33 458.05,297.67 480.02,305.56 C489.59,309.01 510.30,319.35 514.93,323.01 C516.89,324.56 521.20,327.24 524.50,328.96 C524.61,329.02 524.72,329.08 524.83,329.14 C524.76,329.13 524.70,329.13 524.65,329.13 C524.57,329.14 524.51,329.15 524.47,329.19 C524.47,329.19 524.47,329.20 524.47,329.20 C524.46,329.20 524.46,329.21 524.45,329.21 C524.34,329.32 524.88,329.94 525.87,330.88 L 525.87 330.88 C527.34,332.30 529.83,334.46 532.72,336.79 C534.91,338.56 537.33,340.54 539.55,342.40 C543.08,345.42 546.67,348.60 549.09,350.90 C553.17,354.76 556.84,357.93 557.26,357.96 C557.68,357.98 557.90,335.61 557.76,308.25 L 557.50 258.50 L 344.00 257.99 L 344.00 237.00 L 339.98 237.00 L 341.23 236.82 C343.28,236.53 343.53,235.88 343.80,230.25 L 344.10 224.00 L 806.87 224.00 L 807.18 226.75 C807.48,229.35 807.80,229.52 813.27,229.80 L 817.10 230.00 L 807.00 230.00 L 807.00 243.76 C807.00,254.79 806.95,257.01 805.70,257.99 L 699.75 258.25 L 592.50 258.50 L 592.44 271.01 L 592.00 271.01 L 592.00 317.00 C592.00,339.84 592.31,358.92 592.72,362.42 C592.72,362.44 592.72,362.45 592.72,362.47 C592.76,362.82 592.80,363.00 592.85,363.00 L 592.85 363.00 L 592.85 363.00 C593.33,363.00 596.04,360.53 598.89,357.52 ZM 493.45 463.09 C493.52,462.97 493.51,462.80 493.43,462.60 C493.53,462.04 492.95,461.39 491.37,460.12 C492.89,461.20 494.09,461.93 494.41,461.95 C498.03,462.15 524.81,437.53 539.84,420.18 L 545.09 414.13 L 537.16 405.31 C532.93,400.60 527.15,394.89 521.08,389.30 C526.99,394.73 532.59,400.23 536.67,404.72 C540.80,409.27 544.75,413.00 545.43,413.00 C546.11,413.00 548.13,411.18 549.92,408.95 L 553.17 404.91 L 549.33 400.21 C543.08,392.54 521.98,371.93 512.92,364.64 C499.27,353.66 486.53,345.65 474.58,340.61 L 474.58 340.61 C459.16,334.05 445.14,332.36 432.64,335.59 C431.61,335.85 430.57,336.16 429.52,336.51 C420.36,339.29 411.71,344.52 403.49,352.20 C403.08,352.59 402.67,352.97 402.27,353.36 L 402.27 353.36 C398.18,357.22 394.53,361.44 391.62,365.82 C389.99,368.27 388.50,370.82 387.15,373.46 L 387.15 373.47 C384.83,377.87 382.94,382.49 381.49,387.28 C380.32,390.54 379.54,394.07 379.02,398.15 C378.06,403.89 377.72,409.61 378.04,415.07 C378.04,419.92 378.53,422.35 380.00,427.14 C381.40,432.42 383.56,437.47 386.55,442.46 C388.46,445.88 390.47,448.85 392.24,450.75 C392.43,450.95 392.61,451.14 392.77,451.31 C394.15,453.02 395.63,454.74 397.22,456.46 C400.71,460.25 404.37,463.69 408.08,466.70 L 411.02 469.18 C412.89,470.76 415.74,472.54 418.87,474.20 C424.04,477.17 429.10,479.19 433.72,480.02 C434.63,480.19 435.61,480.32 436.66,480.41 C442.46,481.16 446.42,480.88 454.14,479.42 C454.90,479.28 455.70,479.11 456.52,478.93 C457.77,478.67 459.01,478.39 460.23,478.08 C461.06,477.86 462.08,477.55 463.24,477.15 C469.25,475.36 474.94,473.16 476.42,471.87 C483.07,468.93 489.56,465.73 492.12,463.94 C492.68,463.94 493.10,463.65 493.45,463.09 ZM 771.26 434.17 C771.36,434.11 771.46,434.04 771.56,433.95 C772.17,433.45 772.69,432.67 772.90,432.02 C777.67,424.52 778.75,405.80 775.04,391.50 C768.19,365.06 750.04,344.30 726.83,336.35 C720.17,334.06 718.40,333.87 707.50,334.29 C698.11,334.65 693.98,335.29 688.50,337.23 C673.56,342.53 659.91,350.54 643.50,363.64 C633.20,371.86 613.72,390.70 606.30,399.62 L 602.09 404.67 L 613.64 417.58 C622.83,427.86 629.74,435.30 635.85,441.30 C636.89,442.34 637.83,443.27 638.64,444.05 C639.98,445.33 641.47,446.69 643.03,448.06 C646.34,451.03 649.44,453.59 652.50,455.89 C655.03,457.84 657.29,459.47 658.91,460.45 C659.35,460.76 659.79,461.07 660.24,461.39 C664.22,464.15 671.05,467.89 677.51,471.00 C677.99,471.55 680.74,472.74 684.25,474.05 C686.22,474.88 688.01,475.57 689.50,476.05 C691.36,476.66 693.26,477.19 695.18,477.66 C696.49,478.03 697.71,478.35 698.78,478.60 C700.47,478.98 702.64,479.25 705.05,479.42 C712.40,480.26 719.41,480.00 724.84,478.55 C724.94,478.53 725.03,478.50 725.13,478.47 C726.14,478.27 727.02,478.04 727.73,477.78 C729.32,477.21 731.73,475.98 734.22,474.57 C737.15,473.02 739.96,471.28 741.86,469.77 C742.83,469.06 743.54,468.47 743.84,468.08 C744.55,467.52 745.27,467.05 745.68,466.90 C747.03,466.41 757.29,456.96 758.35,455.24 C758.84,454.45 755.58,452.34 750.87,449.98 L 759.49 454.16 L 762.73 450.33 C764.52,448.22 767.20,444.18 768.70,441.34 L 771.42 436.18 L 770.38 435.25 ZM 822.21 427.75 C822.35,424.54 822.37,420.82 822.37,416.00 C822.36,410.03 822.32,405.91 822.14,402.63 C822.81,408.71 823.01,414.94 822.72,421.36 C822.63,423.44 822.46,425.58 822.21,427.75 ZM 603.00 294.94 L 602.68 278.01 L 603.00 278.01 L 603.00 293.84 C603.00,294.20 603.00,294.56 603.00,294.94 ZM 808.21 472.39 C810.56,467.74 812.67,462.78 814.64,457.37 C815.89,453.95 816.93,451.05 817.81,448.50 C815.35,456.66 812.09,464.81 808.21,472.39 ZM 781.67 506.65 C782.73,505.68 783.78,504.68 784.81,503.66 C792.88,495.73 799.12,488.07 804.26,479.54 C802.28,482.87 800.17,486.05 797.97,489.00 C793.55,494.93 787.87,501.02 781.67,506.65 ZM 819.07 386.40 C816.18,376.44 812.16,367.00 807.21,358.39 C812.54,367.48 816.48,376.77 819.07,386.40 ZM 338.66 416.98 C337.83,429.55 339.26,441.54 342.96,452.99 C339.14,441.34 337.67,429.25 338.66,416.98 ZM 408.03 523.36 C395.15,516.67 385.47,510.20 376.56,502.24 C385.50,510.11 395.83,517.02 408.03,523.36 ZM 748.10 448.64 C742.29,445.93 735.20,443.17 730.08,441.88 C729.39,441.71 728.66,441.55 727.92,441.40 C734.21,442.65 740.34,444.93 748.10,448.64 ZM 689.80 443.28 C693.62,441.80 696.37,441.09 701.10,440.67 C696.78,441.22 692.86,442.10 689.80,443.28 ZM 454.20 441.06 C454.79,441.18 455.50,441.37 456.32,441.63 C455.67,441.44 455.08,441.29 454.57,441.19 C450.31,440.33 444.31,439.96 438.33,440.07 C444.29,439.94 450.22,440.26 454.20,441.06 ZM 662.76 460.97 C663.22,460.71 665.11,459.11 667.22,457.18 L 662.94 461.09 ZM 734.72 532.66 C731.38,533.19 727.74,533.52 723.50,533.71 C726.79,533.56 730.56,533.21 733.85,532.77 C734.14,532.73 734.43,532.70 734.72,532.66 ZM 657.59 456.89 C658.86,457.97 659.98,458.91 660.85,459.61 L 659.72 458.82 C659.67,458.78 659.61,458.74 659.55,458.70 C658.99,458.15 658.32,457.54 657.59,456.89 ZM 542.42 341.44 C547.82,345.65 552.24,348.96 552.53,349.00 C552.29,349.00 548.17,345.94 543.20,342.07 C542.94,341.86 542.68,341.65 542.42,341.44 ZM 342.50 394.12 C342.38,394.58 342.26,395.04 342.14,395.52 C341.57,397.77 341.06,400.01 340.62,402.24 C341.13,399.53 341.73,396.91 342.50,394.12 ZM 620.62 410.27 C622.34,408.44 624.94,405.86 628.78,402.10 C624.80,406.00 622.15,408.64 620.44,410.50 C620.50,410.42 620.56,410.35 620.62,410.27 ZM 761.29 425.84 C761.10,425.48 761.00,425.19 761.00,424.98 C761.00,424.10 758.96,421.59 756.27,419.06 C758.96,421.58 761.00,424.08 761.00,424.94 C761.00,425.16 761.10,425.47 761.29,425.84 ZM 653.47 453.34 C653.26,453.14 653.04,452.93 652.82,452.72 C653.41,453.27 653.94,453.75 654.40,454.14 C654.63,454.34 654.86,454.54 655.08,454.74 C654.99,454.66 654.89,454.58 654.79,454.50 C654.44,454.21 654.00,453.82 653.47,453.34 ZM 338.96 237.14 L 339.50 271.50 L 339.23 254.32 L 338.95 237.15 ZM 618.21 413.21 L 618.32 413.07 C617.82,413.85 617.66,414.39 617.73,414.86 C617.66,414.41 617.78,413.91 618.21,413.21 ZM 618.23 415.92 C618.69,416.56 619.45,417.50 620.45,418.68 C619.44,417.50 618.69,416.57 618.28,415.99 C618.26,415.96 618.25,415.94 618.23,415.92 ZM 819.05 230.10 L 819.05 230.10 L 818.77 247.25 ZM 756.03 525.17 C757.17,524.56 758.31,523.92 759.45,523.26 C758.30,523.93 757.16,524.57 756.03,525.17 Z" fill="rgb(241,62,104)"/>
<path d="M 717.19 698.93 C716.36,699.57 715.49,700.15 714.73,700.54 C687.30,714.67 683.28,716.19 680.92,713.29 C680.12,712.30 676.78,703.44 673.50,693.58 L 667.53 675.67 L 659.01 666.58 C645.67,652.35 631.79,633.95 620.50,615.56 C619.75,614.33 618.69,614.09 616.23,614.59 L 612.96 615.26 L 616.49 618.69 C621.54,623.59 623.88,628.84 626.08,640.14 C627.60,648.01 628.24,652.46 627.52,655.97 C626.70,659.05 624.75,662.03 621.25,665.75 L 618.20 669.00 L 618.11 669.09 L 620.26 670.03 L 623.35 671.57 C623.98,671.88 624.60,672.21 625.20,672.52 C625.89,672.91 626.57,673.31 627.17,673.68 L 629.41 675.05 C629.44,675.08 629.47,675.11 629.50,675.13 C629.71,675.34 629.91,675.45 630.12,675.49 L 630.85 675.93 L 632.13 673.94 C631.23,675.61 631.47,676.00 634.13,677.41 C633.54,677.20 633.09,677.13 632.79,677.21 C632.05,677.37 632.09,678.31 632.99,679.99 C633.88,681.64 634.76,684.43 636.10,690.29 C638.02,699.25 641.29,715.74 642.52,722.57 C642.83,724.85 642.80,725.93 642.47,726.61 C641.88,727.26 640.85,727.97 639.67,728.49 C631.27,731.65 603.48,735.63 599.66,733.89 C596.92,732.64 596.69,730.93 595.39,702.20 C594.55,683.68 594.51,683.63 582.20,683.15 L 573.23 682.81 L 572.64 690.65 C572.60,691.18 572.56,691.80 572.51,692.50 L 572.50 692.50 L 572.46 693.26 C572.14,698.53 571.71,707.56 571.42,715.30 C571.13,722.98 571.01,727.76 570.24,730.66 C569.89,731.77 569.41,732.62 568.73,733.25 C567.72,734.17 566.29,734.61 564.20,734.71 C562.49,734.69 560.34,734.45 557.62,734.14 C557.21,734.09 556.79,734.05 556.35,734.00 C553.08,733.64 550.16,733.29 547.55,732.96 C546.27,732.78 544.92,732.58 543.50,732.39 C539.25,731.79 534.82,730.96 531.94,730.25 C529.95,729.70 528.52,729.12 527.48,728.47 C525.30,726.77 525.73,723.40 528.47,708.78 L 528.58 708.22 C529.99,700.67 531.77,690.90 532.54,686.50 C533.30,682.10 535.56,669.50 537.57,658.50 C539.57,647.50 541.42,637.15 541.69,635.50 C541.95,633.85 542.80,628.96 543.58,624.64 C544.36,620.32 545.00,616.60 545.00,616.39 C545.00,615.54 542.27,615.95 541.16,616.76 C541.61,616.08 542.16,615.93 543.00,615.71 C544.20,615.40 545.11,613.93 545.54,611.65 C546.55,606.24 547.86,605.64 556.93,606.43 C561.28,606.81 572.19,607.52 581.17,608.00 C593.99,608.69 598.68,609.34 603.00,611.03 C615.45,615.89 618.48,615.67 617.35,609.99 C616.63,606.42 618.42,605.22 627.14,603.42 C641.71,600.40 643.14,600.44 646.44,603.91 C648.42,605.99 650.33,607.00 652.30,607.00 C652.35,607.00 652.40,607.00 652.45,607.00 C651.09,607.03 650.00,607.38 650.00,607.81 C650.00,608.13 651.03,609.63 652.53,611.55 L 652.54 611.56 C657.99,618.61 670.41,633.00 671.38,633.00 C671.86,633.00 671.97,630.19 671.62,626.75 C669.28,603.69 668.63,600.00 666.97,600.00 C666.06,600.00 664.51,600.89 663.52,601.97 C662.66,602.93 662.24,603.79 662.15,605.19 C662.21,603.27 662.91,602.42 664.87,600.50 C666.56,598.85 667.96,596.56 667.97,595.40 C668.01,592.37 670.29,590.82 681.68,586.08 C693.46,581.17 696.04,581.11 697.34,585.69 C697.85,587.45 698.82,589.10 699.51,589.37 C699.95,589.53 700.45,589.53 700.97,589.39 C700.88,589.44 700.80,589.49 700.72,589.54 C700.43,589.69 700.19,589.84 699.98,590.03 C698.64,591.28 699.02,594.36 700.91,609.82 L 701.05 611.00 C702.16,620.08 703.35,634.66 703.69,643.42 L 704.31 659.34 L 713.26 676.73 L 722.00 693.72 L 720.19 696.03 L 718.10 698.02 C717.79,698.31 717.49,698.62 717.19,698.93 ZM 432.41 659.50 C443.68,647.01 444.12,646.35 443.66,642.75 C443.25,639.50 443.57,638.73 446.04,636.97 C447.60,635.86 450.89,631.92 453.35,628.22 C455.95,624.30 459.72,617.84 463.35,611.27 C459.68,617.96 455.92,624.44 453.54,628.00 C451.51,631.03 448.48,634.92 446.82,636.65 C444.54,639.03 444.02,640.22 444.72,641.47 C445.50,642.86 446.53,642.11 451.16,636.81 C455.89,631.40 472.05,610.72 482.69,596.47 C484.44,594.12 486.31,591.93 486.84,591.60 C488.26,590.72 523.32,600.89 524.61,602.56 C525.22,603.35 526.04,604.00 526.43,604.00 C526.82,604.00 527.82,604.67 528.64,605.50 C528.79,605.65 528.97,605.80 529.17,605.93 C528.37,605.74 527.65,605.62 527.09,605.58 C526.86,605.56 526.67,605.56 526.49,605.57 C526.48,605.57 526.47,605.57 526.46,605.57 C526.17,605.59 525.97,605.65 525.86,605.76 C524.77,606.88 523.94,617.09 523.39,631.06 L 523.39 631.06 C522.29,652.51 521.66,681.71 522.46,694.31 C522.59,696.41 522.73,698.36 522.87,700.04 C522.97,703.63 523.10,706.98 523.26,710.00 C524.01,724.19 524.14,727.76 519.71,727.61 C518.39,727.52 516.52,727.15 513.76,726.50 C505.65,724.58 497.34,722.13 494.87,720.93 C493.98,720.49 491.69,719.84 489.79,719.49 C487.89,719.13 485.05,717.82 483.49,716.57 L 480.64 714.30 L 481.95 701.11 C482.67,693.86 483.09,687.81 482.88,687.67 C481.92,687.04 466.42,680.98 465.76,680.99 C465.13,681.00 462.43,684.67 458.48,690.89 C457.75,692.04 457.10,693.06 456.50,693.98 C455.36,695.59 453.95,697.63 452.46,699.82 C451.52,700.97 450.89,701.49 450.29,701.72 C447.60,702.75 416.92,685.59 414.99,681.97 C414.40,680.89 413.21,680.00 412.34,680.00 C409.42,680.00 382.75,660.39 381.60,657.40 C380.70,655.05 379.16,655.81 376.55,659.92 L 376.65 659.77 C378.13,657.42 379.24,655.28 379.12,655.00 C378.99,654.72 381.87,649.91 385.52,644.29 C391.21,635.53 392.09,633.55 391.78,630.36 C391.58,628.31 390.92,626.47 390.30,626.27 C389.48,625.99 387.12,628.63 380.86,637.11 L 380.92 637.03 C386.69,629.20 389.36,626.00 390.03,626.00 C390.54,626.00 391.66,627.38 392.54,629.07 C394.37,632.61 395.43,632.14 398.44,626.51 C400.31,623.01 400.32,622.75 398.63,619.69 C396.72,616.23 388.02,608.98 385.84,609.03 C385.10,609.05 382.51,611.86 380.07,615.28 C366.61,634.17 363.50,638.00 361.65,638.00 C359.48,638.00 352.56,630.94 341.81,617.75 C337.88,612.94 334.38,609.00 334.02,609.00 C333.67,609.00 332.13,610.30 330.61,611.89 C332.15,610.28 333.88,607.65 334.46,606.05 C335.03,604.44 346.30,591.98 359.50,578.36 C385.86,551.15 389.06,548.00 390.26,548.00 C392.06,548.00 417.91,560.51 419.00,561.91 C419.18,562.14 420.25,562.82 421.71,563.64 C420.79,563.24 419.98,563.00 419.43,563.00 C418.85,563.00 415.94,566.49 412.97,570.75 C410.01,575.01 405.20,581.62 402.29,585.42 C399.38,589.23 397.00,592.92 397.00,593.62 C397.00,594.94 404.75,600.90 406.50,600.92 C406.98,600.92 409.99,597.40 413.51,592.75 C410.88,596.43 409.00,599.39 409.00,599.92 C409.00,602.51 411.66,600.13 416.24,593.43 C425.63,579.71 432.40,571.01 434.14,570.46 C436.04,569.85 458.53,579.07 462.28,581.98 C463.24,582.74 465.36,583.95 467.47,584.97 C466.11,584.42 464.94,584.03 464.37,584.02 C464.05,584.02 462.74,585.91 460.90,588.94 L 460.88 588.96 C459.04,591.99 456.66,596.16 454.19,600.75 C449.22,609.96 443.88,618.68 442.32,620.11 C439.30,622.91 434.18,625.00 430.35,625.00 C429.06,625.00 428.00,625.11 428.00,625.25 C428.01,625.39 429.13,627.71 430.50,630.42 C431.39,632.16 432.06,633.71 432.49,635.25 C432.54,635.93 432.61,636.72 432.70,637.65 C432.82,638.98 432.91,640.04 432.92,640.99 C432.57,643.77 431.47,647.01 429.43,651.38 C428.90,652.43 428.30,653.61 427.61,654.95 C426.14,657.83 424.60,660.79 423.26,663.30 C422.67,664.38 422.06,665.49 421.41,666.66 C420.94,667.51 420.52,668.28 420.15,668.98 C420.09,669.09 420.03,669.18 419.98,669.27 C418.89,671.05 418.01,672.86 418.00,673.30 C418.00,673.54 418.06,673.69 418.20,673.73 C418.69,674.42 422.98,669.96 432.41,659.50 ZM 779.11 643.89 C779.61,645.27 779.85,646.33 779.85,647.19 C779.52,648.04 778.66,649.43 777.55,650.92 C777.07,651.47 776.48,652.20 775.86,653.04 C771.05,658.60 753.63,674.20 751.17,675.12 C748.47,676.13 746.28,674.31 745.56,670.47 C744.96,667.25 736.32,641.17 731.16,626.99 C721.82,601.34 712.20,579.00 710.49,579.00 C708.00,579.00 703.85,583.19 704.34,585.20 C704.07,584.07 705.02,582.42 706.94,580.71 C708.76,579.09 710.00,577.00 710.00,575.56 C710.00,573.45 714.34,569.00 716.41,569.00 C716.73,569.00 723.05,565.40 730.44,561.00 C737.83,556.60 744.93,553.00 746.23,553.00 C747.52,553.00 757.79,557.67 769.04,563.38 C789.11,573.57 803.07,579.85 813.99,583.61 C817.01,584.65 821.66,586.96 824.34,588.75 C825.62,589.61 826.99,590.39 828.19,590.97 L 828.07 590.93 C825.09,589.88 822.61,589.13 822.57,589.26 C822.27,590.27 818.78,596.55 815.38,602.34 L 815.38 602.34 C812.57,606.94 809.27,612.06 806.16,616.66 C803.48,620.22 801.54,622.00 800.32,622.00 C799.61,622.00 795.86,619.97 792.00,617.50 C788.14,615.03 784.63,613.00 784.21,613.00 C783.79,613.00 780.54,615.93 777.00,619.50 L 770.55 626.01 L 775.28 635.52 C776.85,638.69 778.25,641.77 779.11,643.89 ZM 585.28 657.02 C585.33,656.84 585.37,656.64 585.41,656.43 C586.00,655.62 586.82,656.21 587.34,658.21 L 587.92 660.42 L 590.58 657.96 C593.22,655.52 593.23,655.43 592.61,645.02 C592.13,636.93 591.59,634.15 590.23,632.78 C588.17,630.73 576.65,629.13 575.65,630.76 C575.29,631.33 574.90,635.50 574.60,640.49 L 574.50 640.50 L 574.32 646.15 L 574.32 646.16 C574.05,652.47 573.99,658.52 574.34,659.45 C574.36,659.51 574.39,659.57 574.42,659.62 C574.43,659.66 574.44,659.70 574.45,659.73 C574.58,660.07 574.86,660.33 575.31,660.52 C576.11,660.89 577.44,660.95 579.74,660.81 C580.28,660.77 580.76,660.73 581.20,660.69 C581.90,660.63 582.46,660.55 582.91,660.43 C583.98,660.16 584.44,659.74 584.68,658.95 C584.89,658.47 585.07,657.84 585.28,657.02 ZM 478.48 662.81 C478.67,663.56 479.17,664.00 479.99,664.00 C480.07,664.00 480.16,663.98 480.25,663.93 C481.51,664.49 483.12,664.89 484.65,664.94 C486.51,664.99 486.93,664.18 487.86,658.75 C489.98,646.22 490.31,642.00 489.13,642.00 C488.51,642.00 488.00,642.47 488.00,643.05 C488.00,643.63 485.75,647.84 483.00,652.40 C482.09,653.92 481.23,655.40 480.50,656.72 C480.39,656.90 480.27,657.08 480.15,657.28 C479.65,658.08 479.26,658.85 478.98,659.57 C478.36,660.78 478.00,661.63 478.00,661.89 C478.00,662.19 478.18,662.51 478.48,662.81 ZM 766.51 605.99 C768.23,604.19 769.01,602.65 768.44,602.15 C765.54,599.56 753.83,591.83 753.43,592.24 C753.16,592.50 754.50,595.46 756.39,598.81 C758.28,602.15 760.12,605.82 760.48,606.95 C761.39,609.79 763.13,609.52 766.51,605.99 ZM 536.04 619.67 C536.35,614.18 536.42,611.42 536.23,609.95 C536.12,608.99 535.91,608.59 535.59,608.34 C535.42,608.21 535.23,608.12 535.00,608.01 C534.27,607.65 533.47,607.31 532.65,607.00 C536.51,607.06 537.00,608.91 536.04,619.67 ZM 833.58 593.98 C833.08,593.35 831.91,592.58 830.36,591.86 C830.68,591.95 830.94,592.00 831.13,592.00 C832.65,592.00 833.48,592.62 833.58,593.98 ZM 417.11 587.88 C419.56,584.50 421.72,581.39 422.89,579.59 C422.33,580.65 420.00,583.98 417.11,587.88 ZM 826.65 609.22 C828.47,606.23 830.00,603.55 831.18,601.31 C829.89,603.87 828.08,607.00 825.73,610.78 C826.04,610.26 826.35,609.74 826.65,609.22 ZM 685.91 729.44 C684.89,728.58 684.16,727.24 683.83,725.50 C683.97,726.23 684.41,727.23 684.94,728.11 C685.17,728.53 685.42,728.91 685.69,729.21 C685.76,729.29 685.84,729.37 685.91,729.44 ZM 807.09 637.17 C805.55,638.39 804.53,638.19 803.27,637.41 C804.31,638.05 805.32,638.12 806.46,637.52 C806.67,637.43 806.88,637.31 807.09,637.17 ZM 639.35 662.70 C639.21,663.06 638.76,663.82 638.17,664.73 C638.19,664.68 638.21,664.62 638.23,664.57 C638.82,663.63 639.27,662.83 639.41,662.50 C639.61,662.05 640.94,663.04 642.59,664.79 C640.87,662.96 639.59,662.11 639.35,662.70 ZM 705.97 723.49 C711.99,720.47 718.04,717.41 719.73,716.54 C714.58,719.19 709.96,721.53 705.97,723.49 ZM 429.00 569.09 C428.97,568.34 427.23,566.86 425.19,565.54 C427.36,566.82 429.00,568.31 429.00,569.07 C429.00,569.08 429.00,569.09 429.00,569.09 ZM 688.70 730.55 C689.72,730.54 691.00,730.25 692.72,729.63 C691.68,730.05 690.92,730.31 690.44,730.41 C689.83,730.54 689.25,730.59 688.70,730.55 ZM 703.34 587.90 C704.10,587.08 704.57,586.07 704.35,585.23 C704.62,586.25 704.33,587.07 703.34,587.90 ZM 540.26 619.26 C539.81,621.37 539.15,624.84 538.51,628.50 C539.31,623.93 539.82,621.07 540.26,619.26 ZM 662.58 610.58 C662.75,612.56 662.67,614.00 662.36,614.00 C662.35,614.00 662.35,614.00 662.34,614.00 C662.63,613.96 662.71,612.55 662.58,610.58 ZM 654.47 607.42 C655.73,607.93 656.99,608.92 658.44,610.50 C657.06,608.99 655.71,607.95 654.47,607.42 ZM 426.13 574.44 C426.26,574.26 426.38,574.09 426.51,573.92 C426.38,574.09 426.26,574.27 426.13,574.44 Z" fill="rgb(251,229,136)"/>
<path d="M 0.00 443.50 L 0.00 0.00 L 591.50 0.00 L 1183.00 0.00 L 1183.00 443.50 L 1183.00 887.00 L 591.50 887.00 L 0.00 887.00 L 0.00 443.50 ZM 573.78 749.44 C575.34,748.35 576.00,746.87 576.00,744.44 C576.00,741.89 576.43,741.00 577.67,741.00 C581.63,741.00 583.00,738.08 583.00,729.60 C583.01,725.14 583.30,716.44 583.66,710.25 C584.29,699.30 584.37,699.00 586.65,699.00 C588.77,699.00 589.01,699.46 589.08,703.75 C589.40,722.07 590.74,741.14 591.78,742.18 C592.43,742.83 594.88,743.62 597.23,743.93 C600.68,744.39 601.56,744.93 601.82,746.75 C602.25,749.78 605.37,750.42 615.73,749.62 C624.51,748.95 638.99,746.67 642.50,745.41 C645.98,744.16 648.00,741.78 648.00,738.91 C648.00,737.08 648.63,735.93 649.87,735.54 C650.90,735.22 652.43,734.17 653.28,733.22 C654.66,731.67 654.63,730.57 652.90,722.00 C651.85,716.78 650.05,707.78 648.90,702.00 C645.63,685.53 643.87,682.44 635.27,678.00 C631.09,675.85 631.06,675.79 632.56,673.16 C633.40,671.70 635.16,669.02 636.48,667.20 C637.79,665.39 639.08,663.36 639.35,662.70 C639.64,662.00 641.42,663.36 643.67,666.00 C645.78,668.47 650.65,673.89 654.50,678.03 L 661.50 685.57 L 667.40 703.03 C674.99,725.51 674.25,724.23 679.31,723.83 C682.81,723.55 683.52,723.81 683.83,725.50 C684.53,729.23 687.10,731.14 690.44,730.41 C693.00,729.86 703.89,724.70 719.73,716.54 C723.37,714.66 727.25,710.22 726.42,708.88 C726.12,708.39 727.51,706.44 729.52,704.55 C733.96,700.35 734.19,701.28 723.93,681.49 L 716.15 666.49 L 715.04 647.99 C713.96,629.97 712.50,613.96 711.31,607.11 C710.12,600.25 712.93,605.19 718.93,620.49 C726.41,639.56 734.42,662.47 738.94,677.75 C740.83,684.14 741.37,685.00 743.48,685.00 C744.80,685.00 746.16,684.55 746.50,684.00 C747.84,681.83 749.93,683.13 750.57,686.53 C751.36,690.74 753.66,692.30 756.66,690.66 C760.09,688.78 779.30,671.26 781.78,667.74 C783.03,665.96 785.16,662.92 786.50,661.00 C787.84,659.08 789.69,656.47 790.61,655.21 C792.22,653.00 792.11,652.58 787.65,643.77 L 783.02 634.61 L 785.18 632.31 C786.37,631.04 787.97,630.00 788.73,630.00 C789.92,630.00 797.67,633.95 803.25,637.40 C806.47,639.39 808.04,637.69 820.81,618.40 C833.48,599.27 836.32,592.00 831.13,592.00 C830.07,592.00 827.01,590.54 824.34,588.75 C821.66,586.96 817.01,584.65 813.99,583.61 C803.07,579.85 789.11,573.57 769.04,563.38 C757.79,557.67 747.52,553.00 746.23,553.00 C744.93,553.00 737.83,556.60 730.44,561.00 C723.05,565.40 716.73,569.00 716.41,569.00 C714.34,569.00 710.00,573.45 710.00,575.56 C710.00,577.00 708.76,579.09 706.94,580.71 C705.01,582.43 704.05,584.10 704.35,585.23 C704.88,587.24 701.50,590.13 699.51,589.37 C698.82,589.10 697.85,587.45 697.34,585.69 C696.04,581.11 693.46,581.17 681.68,586.08 C670.29,590.82 668.01,592.37 667.97,595.40 C667.96,596.56 666.56,598.85 664.87,600.50 C662.00,603.31 661.84,603.84 662.41,608.75 C662.74,611.64 662.71,614.00 662.33,614.00 C661.95,614.00 660.20,612.42 658.44,610.50 C656.17,608.03 654.37,607.00 652.30,607.00 C650.33,607.00 648.42,605.99 646.44,603.91 C643.14,600.44 641.71,600.40 627.14,603.42 C618.42,605.22 616.63,606.42 617.35,609.99 C618.48,615.67 615.45,615.89 603.00,611.03 C598.68,609.34 593.99,608.69 581.17,608.00 C572.19,607.52 561.28,606.81 556.93,606.43 C547.86,605.64 546.55,606.24 545.54,611.65 C545.11,613.93 544.20,615.40 543.00,615.71 C540.67,616.32 540.63,616.42 538.51,628.50 C535.36,646.40 534.04,641.93 536.01,620.07 C537.03,608.77 536.54,607.00 532.45,607.00 C531.18,607.00 529.47,606.33 528.64,605.50 C527.82,604.67 526.82,604.00 526.43,604.00 C526.04,604.00 525.22,603.35 524.61,602.56 C523.32,600.89 488.26,590.72 486.84,591.60 C486.31,591.93 484.44,594.12 482.69,596.47 C472.05,610.72 455.89,631.40 451.16,636.81 C446.53,642.11 445.50,642.86 444.72,641.47 C444.02,640.22 444.54,639.03 446.82,636.65 C448.48,634.92 451.51,631.03 453.54,628.00 C459.72,618.78 475.08,589.93 474.39,588.82 C474.03,588.24 471.66,586.86 469.12,585.74 C466.58,584.63 463.50,582.94 462.28,581.98 C458.53,579.07 436.04,569.85 434.14,570.46 C432.40,571.01 425.63,579.71 416.24,593.43 C411.66,600.13 409.00,602.51 409.00,599.92 C409.00,599.24 412.15,594.48 416.00,589.36 C419.85,584.24 423.01,579.70 423.03,579.28 C423.04,578.85 424.39,576.73 426.03,574.57 C427.66,572.41 429.00,569.94 429.00,569.07 C429.00,568.20 426.86,566.38 424.25,565.02 C421.64,563.66 419.27,562.26 419.00,561.91 C417.91,560.51 392.06,548.00 390.26,548.00 C389.06,548.00 385.86,551.15 359.50,578.36 C346.30,591.98 335.03,604.44 334.46,606.05 C333.88,607.65 332.15,610.28 330.61,611.89 C328.45,614.14 327.97,615.35 328.53,617.16 C330.24,622.72 352.94,648.00 356.22,648.00 C357.30,648.00 360.02,649.58 362.27,651.50 L 366.37 655.00 L 368.73 652.79 C370.03,651.57 372.98,647.95 375.29,644.74 C385.83,630.16 389.27,625.92 390.30,626.27 C390.92,626.47 391.58,628.31 391.78,630.36 C392.09,633.55 391.21,635.53 385.52,644.29 C381.87,649.91 378.99,654.72 379.12,655.00 C379.24,655.28 378.13,657.42 376.65,659.77 C374.28,663.52 374.11,664.32 375.23,666.44 C376.66,669.13 388.21,678.50 398.61,685.39 C402.40,687.90 406.79,690.94 408.36,692.14 C417.70,699.31 452.01,718.34 454.66,717.83 C456.32,717.51 461.05,711.42 467.17,701.75 C470.44,696.57 470.70,696.45 474.46,698.17 C476.96,699.30 477.00,699.50 476.26,705.92 C475.84,709.54 475.50,715.42 475.50,719.00 L 475.50 725.50 L 480.67 728.00 C483.52,729.38 486.67,731.25 487.67,732.16 C489.90,734.19 504.21,739.03 518.36,742.52 C524.24,743.98 525.58,744.03 527.77,742.86 C529.80,741.78 530.41,741.76 530.75,742.76 C531.58,745.22 535.68,746.44 550.50,748.61 C569.02,751.32 571.00,751.39 573.78,749.44 ZM 463.30 533.51 C480.68,530.89 500.66,522.95 517.50,511.96 C527.34,505.54 541.00,494.70 546.96,488.58 C549.41,486.06 552.00,484.00 552.71,484.00 C553.71,484.00 554.00,487.67 554.00,500.45 L 554.00 516.90 L 559.24 517.20 C564.20,517.48 564.52,517.66 565.00,520.50 L 565.52 523.50 L 582.01 523.50 L 598.50 523.50 L 598.80 516.75 C599.08,510.35 599.22,510.00 601.52,510.00 L 603.95 510.00 L 604.23 493.26 L 604.50 476.51 L 612.23 483.68 C627.23,497.60 641.92,507.58 663.41,518.48 C686.72,530.30 703.72,534.61 723.50,533.71 C736.29,533.13 743.61,531.33 753.95,526.24 C769.04,518.80 787.21,503.42 797.97,489.00 C811.79,470.46 821.75,443.24 822.72,421.36 C823.84,396.07 817.54,373.61 803.30,352.12 C791.73,334.67 776.55,322.26 750.59,309.05 C735.85,301.54 727.35,299.56 710.00,299.57 C693.47,299.58 684.15,301.41 669.31,307.55 C651.82,314.79 629.22,329.62 611.41,345.55 L 604.31 351.90 L 603.66 330.79 C603.30,319.18 603.00,302.55 603.00,293.84 L 603.00 278.01 L 708.25 277.75 L 813.50 277.50 L 813.80 271.31 C814.06,265.81 814.33,265.09 816.30,264.81 C818.46,264.51 818.51,264.17 818.77,247.30 L 819.05 230.10 L 813.27 229.80 C807.80,229.52 807.48,229.35 807.18,226.75 L 806.87 224.00 L 575.48 224.00 L 344.10 224.00 L 343.80 230.25 C343.53,235.88 343.28,236.53 341.23,236.82 L 338.95 237.15 L 339.23 254.32 L 339.50 271.50 L 344.69 271.80 C349.49,272.08 349.90,272.30 350.19,274.80 L 350.50 277.50 L 451.75 277.75 L 553.00 278.01 L 553.00 313.50 C553.00,333.03 552.79,349.00 552.54,349.00 C552.28,349.00 547.22,345.20 541.29,340.55 C535.35,335.90 527.80,330.69 524.50,328.96 C521.20,327.24 516.89,324.56 514.93,323.01 C510.30,319.35 489.59,309.01 480.02,305.56 C458.05,297.67 436.46,297.33 416.15,304.56 C386.51,315.12 362.74,339.07 350.71,370.50 C342.42,392.13 340.64,398.76 338.92,414.19 C335.57,444.40 347.14,473.68 372.03,498.00 C382.24,507.99 392.94,515.52 408.03,523.36 C429.34,534.44 441.88,536.74 463.30,533.51 ZM 488.65 458.10 C482.01,452.90 460.69,442.35 454.20,441.06 C446.35,439.49 430.89,439.77 422.71,441.63 C418.75,442.53 411.96,444.77 407.61,446.60 C403.27,448.44 399.32,449.69 398.84,449.40 C397.43,448.53 393.39,439.99 391.44,433.75 C390.41,430.48 389.05,428.00 388.29,428.00 C386.14,428.00 385.68,425.29 387.41,422.82 C388.31,421.54 389.00,418.53 389.00,415.89 C389.00,408.23 391.96,394.81 394.72,390.00 C404.99,372.03 423.08,358.42 442.04,354.40 C459.21,350.75 478.72,356.35 498.73,370.68 C509.80,378.60 527.48,394.53 537.16,405.31 L 545.09 414.13 L 539.84 420.18 C524.81,437.53 498.03,462.15 494.41,461.95 C493.91,461.92 491.32,460.19 488.65,458.10 ZM 425.10 415.11 C429.72,412.84 436.20,410.49 439.50,409.88 C444.99,408.88 456.27,409.14 465.00,410.47 C468.09,410.95 467.79,410.66 462.54,408.03 C453.07,403.30 447.70,402.46 438.62,404.32 C425.34,407.02 413.57,413.59 402.95,424.21 C396.69,430.47 395.90,432.28 398.73,433.87 C400.13,434.65 401.98,433.37 408.58,427.04 C414.58,421.28 418.89,418.17 425.10,415.11 ZM 505.00 431.59 C505.00,429.04 484.71,412.00 481.68,412.00 C481.07,412.00 483.65,414.87 487.42,418.39 C491.18,421.90 493.98,425.22 493.64,425.77 C493.30,426.32 495.07,428.65 497.57,430.96 C501.26,434.36 502.39,434.92 503.56,433.95 C504.35,433.29 505.00,432.23 505.00,431.59 ZM 654.40 454.14 C647.36,448.03 621.79,421.00 618.19,415.86 C616.89,414.00 617.62,413.05 628.78,402.10 C671.75,359.91 709.68,344.42 737.68,357.63 C741.14,359.27 745.48,362.85 750.78,368.45 C764.07,382.49 771.42,399.70 772.70,419.75 C773.03,424.84 772.96,429.00 772.56,429.00 C772.15,429.00 769.27,426.72 766.16,423.94 C760.00,418.44 750.13,411.54 749.42,412.24 C749.18,412.49 751.69,415.04 754.99,417.91 C758.30,420.79 761.00,423.96 761.00,424.98 C761.00,425.99 763.34,428.92 766.21,431.50 L 771.42 436.18 L 768.70 441.34 C767.20,444.18 764.52,448.22 762.73,450.33 L 759.49 454.16 L 749.00 449.08 C733.64,441.64 724.72,439.66 709.08,440.23 C698.64,440.61 695.36,441.13 689.80,443.28 C681.95,446.32 673.21,451.69 667.27,457.13 C664.95,459.26 662.88,461.00 662.67,461.00 C662.46,461.00 658.74,457.92 654.40,454.14 ZM 672.00 431.00 C673.83,427.59 686.29,418.26 693.91,414.61 C697.95,412.67 703.77,410.57 706.83,409.93 C712.00,408.86 724.17,409.11 733.00,410.47 C736.08,410.94 735.78,410.65 730.54,408.03 C727.26,406.39 722.26,404.53 719.44,403.90 C708.06,401.35 688.82,408.43 674.98,420.26 C666.42,427.57 664.01,431.10 665.95,433.44 C667.45,435.24 670.36,434.07 672.00,431.00 Z" fill="rgb(254,254,254)"/>
</g>
</svg>